M48
;DRILL file {KiCad 4.0.1-stable} date 2016 April 26, Tuesday 22:59:01
;FORMAT={-:-/ absolute / metric / decimal}
FMAT,2
METRIC,TZ
T1C1.016
%
G90
G05
M71
T1
X27.94Y-22.86
X27.94Y-25.4
X27.94Y-27.94
X27.94Y-33.02
X27.94Y-35.56
X27.94Y-38.1
X35.56Y-33.02
X35.56Y-35.56
X35.56Y-53.34
X35.56Y-55.88
X35.56Y-58.42
X43.18Y-68.58
X43.18Y-71.12
X43.18Y-73.66
X43.18Y-76.2
X45.72Y-68.58
X45.72Y-71.12
X45.72Y-73.66
X45.72Y-76.2
X50.8Y-17.78
X50.8Y-22.86
X50.8Y-25.4
X50.8Y-27.94
X50.8Y-50.8
X53.34Y-17.78
X58.42Y-25.4
X58.42Y-27.94
X58.42Y-35.56
X58.42Y-38.1
X58.42Y-40.64
X58.42Y-43.18
X58.42Y-45.72
X58.42Y-48.26
T0
M30
