M48
;DRILL file {KiCad 4.0.7-e2-6376~58~ubuntu17.04.1} date Wed Sep 13 15:24:08 2017
;FORMAT={-:-/ absolute / metric / decimal}
FMAT,2
METRIC,TZ
T1C0.650
T2C1.000
T3C1.001
%
G90
G05
M71
T1
X125.73Y-110.3
X125.73Y-112.3
X125.73Y-114.3
X125.73Y-116.3
X125.73Y-118.3
X125.73Y-120.3
X125.73Y-122.3
X125.73Y-124.3
X127.72Y-125.3
X129.72Y-125.3
X131.72Y-125.3
X133.72Y-125.3
X135.72Y-125.3
X137.72Y-125.3
X139.73Y-110.3
X139.73Y-112.3
X139.73Y-114.3
X139.73Y-116.3
X139.73Y-118.3
X139.73Y-120.3
X139.73Y-122.3
X139.73Y-124.3
T2
X147.32Y-102.87
X147.32Y-105.41
X147.32Y-113.03
X147.32Y-115.57
X147.32Y-118.11
X147.32Y-120.65
X147.32Y-123.19
X147.32Y-125.73
X165.1Y-102.87
X167.64Y-102.87
X176.53Y-110.49
X176.53Y-113.03
X176.53Y-115.57
X176.53Y-118.11
X176.53Y-120.65
X176.53Y-123.19
X176.53Y-125.73
T3
X162.56Y-121.92
X162.56Y-125.73
X167.64Y-121.92
X167.64Y-125.73
T0
M30
