M48
;DRILL file {KiCad 4.0.7-e2-6376~58~ubuntu17.04.1} date Mon Sep  4 13:58:57 2017
;FORMAT={-:-/ absolute / metric / decimal}
FMAT,2
METRIC,TZ
T1C0.650
T2C1.000
%
G90
G05
M71
T1
X128.875Y-104.14
X128.875Y-106.14
X128.875Y-108.14
X128.875Y-110.14
X128.875Y-112.14
X128.875Y-114.14
X128.875Y-116.14
X128.875Y-118.14
X130.865Y-119.14
X132.865Y-119.14
X134.865Y-119.14
X136.865Y-119.14
X138.865Y-119.14
X140.865Y-119.14
X142.875Y-104.14
X142.875Y-106.14
X142.875Y-108.14
X142.875Y-110.14
X142.875Y-112.14
X142.875Y-114.14
X142.875Y-116.14
X142.875Y-118.14
T2
X155.575Y-95.885
X155.575Y-98.425
X155.575Y-105.004
X155.575Y-107.544
X155.575Y-110.084
X155.575Y-112.624
X155.575Y-115.164
X155.575Y-117.704
T0
M30
